# xmcd CD database file
# Copyright (C) 1995-1998 Ti Kan
#
# Track frame offsets:
#	150
#	17611
#	30173
#	47595
#	60987
#	74699
#	90455
#	107152
#	120450
#	134708
#	152387
#	168414
#	184630
#	198941
#	211548
#	224707
#	239156
#	256196
#	271769
#	284194
#	298247
#
# Disc length: 4158 seconds
#
# Revision: 1
# Processed by: cddbd v1.5.1PL0 Copyright (c) Steve Scherf et al.
# Submitted via: CDex 1.40Beta3
#
DISCID=36103c15
DTITLE=Ronaldo Viola e Praiano - Volume 1
DYEAR=1900
DGENRE=Country
TTITLE0=Desatino
TTITLE1=O mesmo castigo
TTITLE2=Parceria com Deus
TTITLE3=Proposta
TTITLE4=Duelo de paixão
TTITLE5=Paixão desenfreada
TTITLE6=Faça do seu jeito
TTITLE7=Molhada de amor
TTITLE8=Se não güenta não vem
TTITLE9=Irrestível paixão
TTITLE10=Jeitão de cabocla
TTITLE11=Pescaria
TTITLE12=Rei da pecuária
TTITLE13=Pé-de-cana bom de cama
TTITLE14=Rei da pecuária
TTITLE15=Quarenta graus de paixão
TTITLE16=O rodeio e o futebol
TTITLE17=Velho combatente
TTITLE18=Rio de cerveja
TTITLE19=De Nova Iorque a Goiás
TTITLE20=Queima do alho
EXTD=ID3G:   2
EXTT0=
EXTT1=
EXTT2=
EXTT3=
EXTT4=
EXTT5=
EXTT6=
EXTT7=
EXTT8=
EXTT9=
EXTT10=
EXTT11=
EXTT12=
EXTT13=
EXTT14=
EXTT15=
EXTT16=
EXTT17=
EXTT18=
EXTT19=
EXTT20=
PLAYORDER=
